<?xml version="1.0" standalone="no"?>
<!DOCTYPE svg PUBLIC "-//W3C//DTD SVG 20010904//EN"
 "http://www.w3.org/TR/2001/REC-SVG-20010904/DTD/svg10.dtd">
<svg version="1.0" xmlns="http://www.w3.org/2000/svg"
 width="700.000000pt" height="700.000000pt" viewBox="0 0 700.000000 700.000000"
 preserveAspectRatio="xMidYMid meet">
<metadata>
Created by potrace 1.14, written by Peter Selinger 2001-2017
</metadata>
<g transform="translate(0.000000,700.000000) scale(0.100000,-0.100000)"
fill="#000000" stroke="none">
<path d="M3479 6118 c-7 -18 -39 -88 -71 -156 -32 -68 -58 -125 -58 -127 0 -2
-27 -60 -60 -130 -33 -70 -60 -128 -60 -130 0 -2 -33 -74 -74 -162 -40 -87
-80 -173 -87 -191 -11 -25 -23 -35 -54 -43 -206 -53 -361 -111 -518 -191 -386
-198 -719 -525 -925 -908 -85 -159 -187 -434 -206 -555 -4 -22 -11 -56 -16
-75 -5 -19 -12 -60 -16 -90 -3 -30 -8 -68 -10 -85 -2 -16 -6 -102 -8 -190 -3
-165 11 -337 40 -469 8 -39 17 -81 20 -93 2 -12 9 -35 15 -50 6 -16 10 -30 10
-33 -4 -27 93 -279 147 -383 l30 -58 -23 -52 c-24 -56 -58 -129 -125 -272 -23
-49 -62 -134 -87 -189 -25 -54 -52 -110 -59 -125 -8 -14 -14 -31 -14 -37 0 -8
125 -11 444 -12 l445 0 118 -79 c317 -212 633 -324 1038 -368 54 -6 282 -6
355 -1 163 13 308 41 475 91 200 61 407 161 591 286 l103 70 440 0 c242 0 443
4 446 9 3 4 -27 77 -66 162 -39 84 -82 178 -96 208 -14 30 -40 88 -59 127 -19
40 -45 97 -59 128 l-24 56 21 37 c112 200 210 531 235 802 13 135 7 427 -11
516 -2 12 -7 37 -10 55 -13 75 -18 98 -42 194 -110 433 -377 846 -737 1139
-236 193 -601 373 -864 427 l-62 13 -157 340 c-87 188 -182 393 -212 456 -30
63 -59 127 -65 143 -15 35 -22 34 -38 -5z m51 -440 c20 -45 82 -181 180 -393
13 -27 25 -54 28 -58 2 -5 -18 -6 -44 -3 -57 7 -316 7 -387 1 -26 -3 -46 -2
-44 3 3 4 15 30 27 57 12 28 36 79 53 115 87 187 115 249 132 288 10 23 22 42
25 42 4 0 17 -24 30 -52z m200 -633 c30 -5 64 -8 74 -9 19 0 54 -66 160 -298
68 -149 252 -551 286 -623 15 -33 41 -89 58 -125 16 -36 47 -101 67 -145 21
-44 50 -108 66 -143 16 -35 122 -264 235 -510 114 -246 214 -465 224 -487 10
-22 38 -83 63 -135 38 -81 131 -283 231 -502 14 -31 26 -59 26 -62 0 -15 -101
-158 -165 -234 -139 -167 -263 -282 -304 -282 -14 -1 -588 -1 -1274 -1 -1104
-1 -1250 1 -1270 15 -96 66 -340 347 -412 473 -18 30 -18 32 5 80 12 26 35 75
50 108 15 33 42 92 60 130 18 39 67 147 110 240 43 94 103 223 134 289 31 65
56 119 56 121 0 1 20 45 44 96 75 161 112 241 166 359 29 63 74 162 101 219
27 57 49 105 49 106 0 2 27 60 60 130 33 70 60 128 60 131 0 2 27 60 60 130
33 69 60 128 60 129 0 2 23 51 51 111 28 59 72 155 99 213 101 224 209 453
215 460 5 4 35 8 130 17 39 4 71 7 72 9 7 5 305 -4 353 -10z m-780 -73 c0 -5
-13 -35 -29 -68 -15 -32 -66 -140 -111 -239 -46 -99 -102 -222 -126 -273 -24
-52 -44 -95 -44 -97 0 -1 -23 -52 -51 -111 -28 -60 -71 -151 -95 -202 -24 -51
-44 -95 -44 -97 0 -2 -22 -50 -48 -107 -63 -132 -87 -184 -187 -403 -46 -99
-100 -216 -120 -260 -21 -44 -76 -163 -122 -265 -47 -102 -107 -232 -134 -289
-27 -57 -49 -105 -49 -107 0 -1 -25 -55 -55 -119 -30 -65 -55 -122 -55 -129
-2 -40 -95 208 -130 343 -69 274 -78 564 -25 886 30 185 148 481 267 673 238
383 607 679 1035 833 118 42 123 43 123 31z m1166 -11 c513 -165 942 -535
1186 -1023 43 -87 113 -262 123 -308 2 -8 13 -49 24 -90 44 -158 60 -310 57
-530 -4 -269 -38 -448 -127 -683 -44 -116 -54 -130 -68 -96 -8 23 -218 481
-286 624 -18 39 -56 122 -85 185 -29 63 -68 149 -87 190 -20 41 -103 221 -185
400 -83 179 -230 498 -328 710 -98 212 -194 421 -214 465 -20 44 -46 97 -56
118 -19 37 -25 57 -16 57 2 0 30 -9 62 -19z m-2367 -3226 c30 -41 87 -109 127
-152 40 -43 73 -82 74 -88 0 -9 -398 -11 -407 -2 -2 2 23 60 55 128 32 68 65
139 73 157 8 17 16 32 19 32 3 0 29 -34 59 -75z m3577 53 c4 -13 31 -75 61
-138 78 -164 77 -160 50 -161 -32 -1 -348 -1 -375 0 -21 1 -14 11 53 84 43 45
102 117 133 160 31 42 60 77 64 77 4 0 10 -10 14 -22z m-816 -479 c0 -10 -164
-93 -255 -129 -186 -74 -369 -119 -560 -137 -134 -13 -409 -6 -499 13 -12 3
-39 7 -61 10 -133 19 -352 93 -525 177 -121 59 -124 61 -90 66 49 8 1990 7
1990 0z"/>
</g>
</svg>
