<?xml version="1.0" standalone="no"?>
<!DOCTYPE svg PUBLIC "-//W3C//DTD SVG 20010904//EN"
 "http://www.w3.org/TR/2001/REC-SVG-20010904/DTD/svg10.dtd">
<svg version="1.0" xmlns="http://www.w3.org/2000/svg"
 width="700.000000pt" height="700.000000pt" viewBox="0 0 700.000000 700.000000"
 preserveAspectRatio="xMidYMid meet">
<metadata>
Created by potrace 1.14, written by Peter Selinger 2001-2017
</metadata>
<g transform="translate(0.000000,700.000000) scale(0.100000,-0.100000)"
fill="#000000" stroke="none">
<path d="M3479 6118 c-7 -18 -39 -88 -71 -156 -32 -68 -58 -125 -58 -127 0 -2
-27 -60 -60 -130 -33 -70 -60 -128 -60 -130 0 -3 -106 -233 -187 -405 -20 -41
-42 -90 -50 -108 -7 -18 -19 -35 -26 -37 -7 -2 -52 -16 -102 -31 -362 -109
-722 -347 -974 -645 -83 -98 -86 -102 -153 -201 -144 -213 -255 -477 -309
-733 -17 -83 -18 -85 -24 -135 -3 -25 -8 -61 -11 -80 -9 -59 -11 -331 -3 -410
24 -251 80 -462 182 -692 l26 -58 -40 -87 c-22 -49 -46 -101 -54 -118 -7 -16
-41 -88 -74 -158 -34 -71 -61 -130 -61 -132 0 -2 -22 -50 -50 -108 -27 -58
-50 -109 -50 -115 0 -6 174 -9 459 -10 l458 0 84 -60 c262 -187 576 -317 886
-366 16 -2 47 -7 70 -11 94 -15 339 -21 438 -11 138 14 158 17 164 20 3 2 29
6 56 10 70 8 284 68 380 106 170 67 391 190 507 282 l37 29 455 0 c251 0 458
4 461 9 4 7 -33 93 -165 375 -23 50 -51 110 -62 135 -11 25 -38 82 -59 127
l-38 83 39 89 c186 428 224 886 116 1361 -16 67 -67 215 -108 310 -126 296
-295 531 -539 755 -207 189 -496 353 -774 439 -49 15 -96 31 -103 34 -7 4 -92
178 -188 387 -96 209 -204 443 -240 520 -36 77 -73 157 -82 177 -9 21 -20 38
-23 38 -4 0 -12 -15 -20 -32z m51 -440 c31 -69 136 -298 190 -413 23 -49 51
-110 62 -135 11 -25 22 -48 25 -53 2 -4 -20 -4 -49 0 -68 10 -447 10 -515 0
l-53 -7 34 72 c18 40 46 100 61 133 15 33 41 89 58 125 92 199 115 249 132
288 10 23 22 42 25 42 4 0 17 -24 30 -52z m175 -772 c22 -3 63 -8 90 -12 61
-7 115 -23 115 -34 0 -4 20 -50 44 -102 24 -51 53 -115 66 -143 12 -27 76
-165 140 -305 65 -140 131 -284 148 -320 16 -36 47 -101 67 -145 21 -44 50
-108 66 -143 16 -35 122 -264 235 -510 114 -246 214 -465 224 -487 10 -22 36
-78 58 -125 104 -218 242 -524 242 -535 0 -18 -97 -168 -170 -265 -95 -124
-265 -290 -298 -290 -37 -1 -2431 -1 -2463 0 -19 0 -52 26 -125 98 -54 54
-108 109 -119 123 -70 87 -97 122 -141 189 -27 41 -58 92 -69 112 l-19 36 34
74 c18 40 51 111 73 158 21 47 74 162 117 255 43 94 103 223 134 289 31 65 56
119 56 121 0 1 22 49 49 106 26 57 86 185 131 284 45 99 105 227 131 284 27
57 49 104 49 106 0 2 22 49 49 106 26 57 58 127 71 154 12 28 36 79 52 115
142 305 157 337 213 460 29 63 69 150 89 193 20 42 36 81 36 85 0 33 74 56
225 68 39 4 71 7 72 8 6 5 291 -2 328 -8z m-828 -93 c-2 -5 -11 -24 -20 -43
-8 -19 -31 -69 -50 -110 -19 -41 -68 -149 -110 -240 -74 -162 -114 -249 -196
-423 -22 -48 -41 -89 -41 -91 0 -2 -24 -55 -54 -117 -61 -131 -80 -171 -186
-404 -43 -93 -97 -210 -120 -260 -23 -49 -79 -171 -125 -270 -46 -99 -102
-220 -125 -270 -23 -49 -64 -139 -92 -200 -27 -60 -53 -114 -57 -118 -14 -15
-93 241 -115 373 -13 77 -17 111 -21 157 -5 66 -6 313 -1 338 2 11 7 52 11 90
4 39 14 99 22 135 9 36 17 72 18 80 10 70 75 250 140 385 206 429 572 769
1030 956 106 44 97 41 92 32z m1327 -28 c36 -14 74 -29 83 -34 10 -5 47 -24
83 -41 380 -191 687 -500 874 -883 88 -180 159 -415 181 -597 13 -115 15 -138
15 -255 0 -114 -4 -183 -14 -250 -3 -16 -7 -48 -11 -70 -7 -55 -10 -70 -29
-145 -20 -76 -76 -250 -81 -250 -5 0 -34 62 -153 320 -49 107 -106 229 -125
270 -19 41 -58 127 -87 190 -29 63 -68 149 -87 190 -92 196 -402 868 -448 971
-29 63 -66 144 -83 180 -112 234 -199 429 -192 429 4 0 37 -11 74 -25z m-2429
-3035 c59 -86 81 -112 169 -207 l49 -53 -99 -1 c-147 -1 -348 2 -351 5 -2 2
23 59 55 127 32 68 69 148 82 177 13 29 27 49 30 45 4 -5 33 -46 65 -93z
m3620 -114 c36 -77 63 -141 61 -143 -4 -4 -290 -7 -411 -4 l-39 1 51 53 c60
62 155 182 202 256 l35 54 18 -39 c10 -22 47 -102 83 -178z m-908 -329 c6 -6
-84 -54 -202 -107 -131 -60 -331 -121 -440 -136 -27 -3 -52 -7 -55 -9 -14 -8
-179 -19 -290 -19 -320 0 -589 64 -878 208 -98 48 -112 57 -112 64 0 8 1969 6
1977 -1z"/>
</g>
</svg>
