<?xml version="1.0" standalone="no"?>
<!DOCTYPE svg PUBLIC "-//W3C//DTD SVG 20010904//EN"
 "http://www.w3.org/TR/2001/REC-SVG-20010904/DTD/svg10.dtd">
<svg version="1.0" xmlns="http://www.w3.org/2000/svg"
 width="700.000000pt" height="700.000000pt" viewBox="0 0 700.000000 700.000000"
 preserveAspectRatio="xMidYMid meet">
<metadata>
Created by potrace 1.14, written by Peter Selinger 2001-2017
</metadata>
<g transform="translate(0.000000,700.000000) scale(0.100000,-0.100000)"
fill="#000000" stroke="none">
<path d="M2226 5792 c2 -48 6 -102 9 -119 3 -18 8 -50 11 -70 20 -139 90 -337
161 -461 165 -285 384 -457 653 -511 34 -7 34 -7 -40 -29 -190 -58 -365 -138
-505 -232 -101 -68 -139 -100 -239 -198 -285 -279 -462 -634 -512 -1022 -11
-84 -11 -387 -1 -465 7 -52 25 -150 41 -221 16 -73 85 -254 130 -341 46 -86
138 -237 156 -253 3 -3 27 -32 55 -65 239 -290 577 -507 910 -584 28 -7 66
-16 85 -21 19 -4 58 -11 85 -14 28 -4 70 -9 95 -12 25 -3 106 -5 180 -5 125 0
168 3 260 16 19 3 51 7 70 10 19 2 78 15 131 29 410 108 765 368 1021 752 99
148 193 381 233 577 24 119 30 197 30 367 0 172 -7 252 -31 361 -8 41 -17 84
-20 96 -2 12 -20 68 -40 125 -151 432 -486 807 -897 1001 -108 51 -269 104
-398 129 -60 12 -109 25 -109 30 0 4 25 59 56 120 93 189 230 384 388 556 42
45 77 88 77 95 6 66 4 80 -17 111 -35 50 -107 66 -164 36 -19 -10 -173 -176
-198 -212 -9 -13 -19 -25 -23 -28 -12 -8 -99 -130 -160 -223 -58 -88 -172
-310 -184 -360 -11 -42 -25 -42 -26 0 -1 41 -2 56 -13 118 -52 307 -266 617
-553 801 -179 114 -404 186 -625 199 l-87 5 5 -88z"/>
</g>
</svg>
