<?xml version="1.0" standalone="no"?>
<!DOCTYPE svg PUBLIC "-//W3C//DTD SVG 20010904//EN"
 "http://www.w3.org/TR/2001/REC-SVG-20010904/DTD/svg10.dtd">
<svg version="1.0" xmlns="http://www.w3.org/2000/svg"
 width="512.000000pt" height="512.000000pt" viewBox="0 0 512.000000 512.000000"
 preserveAspectRatio="xMidYMid meet">
<metadata>
Created by potrace 1.14, written by Peter Selinger 2001-2017
</metadata>
<g transform="translate(0.000000,512.000000) scale(0.100000,-0.100000)"
fill="#000000" stroke="none">
<path d="M2529 4098 c-19 -40 -90 -193 -159 -341 l-125 -268 -89 -30 c-317
-105 -591 -342 -741 -639 -99 -197 -138 -362 -138 -585 0 -175 23 -305 79
-450 20 -49 38 -99 40 -110 3 -12 -34 -105 -94 -235 l-100 -215 287 -5 286 -5
65 -46 c77 -55 196 -116 298 -153 262 -94 592 -94 854 0 102 37 221 98 298
153 l65 46 286 5 287 5 -100 215 c-60 130 -97 223 -94 235 2 11 20 61 40 110
104 268 108 605 10 877 -135 376 -437 673 -810 797 l-89 30 -156 336 c-86 185
-159 338 -162 341 -3 3 -20 -28 -38 -68z m136 -391 c47 -104 85 -190 83 -192
-2 -1 -43 2 -92 7 -52 5 -128 5 -180 0 -50 -5 -92 -8 -94 -6 -2 1 38 93 89
203 56 122 96 197 100 189 4 -7 46 -98 94 -201z m52 -298 c43 -6 83 -16 90
-22 15 -15 793 -1703 793 -1720 0 -26 -103 -169 -182 -252 l-80 -85 -773 0
-773 0 -80 85 c-79 83 -182 226 -182 252 0 17 778 1705 793 1720 27 28 257 41
394 22z m-540 -71 c-11 -28 -686 -1487 -700 -1514 l-15 -28 -27 84 c-151 480
22 1008 430 1310 71 52 274 160 302 160 8 0 13 -6 10 -12z m910 -43 c525 -258
783 -859 608 -1415 l-27 -84 -15 28 c-14 27 -689 1486 -700 1514 -9 22 21 13
134 -43z m-1583 -1795 c15 -22 51 -69 81 -105 l56 -65 -136 0 c-75 0 -134 3
-132 8 2 4 23 51 48 105 24 53 46 97 50 97 3 0 18 -18 33 -40z m2205 -57 c25
-54 46 -101 48 -105 2 -5 -57 -8 -132 -8 l-136 0 56 65 c30 36 66 83 81 105
15 22 30 40 33 40 4 0 26 -44 50 -97z m-565 -242 c-142 -87 -389 -151 -579
-151 -175 0 -383 51 -535 130 l-75 39 610 0 c604 1 610 1 579 -18z"/>
</g>
</svg>
